<svg xmlns="http://www.w3.org/2000/svg" xmlns:svg="http://www.w3.org/2000/svg" id="svg2" width="404.085" height="448.407" version="1.1" viewBox="0 0 404.085 448.407" xml:space="preserve"><metadata id="metadata8"/><defs id="defs6"><clipPath id="clipPath18" clipPathUnits="userSpaceOnUse"><path id="path16" d="M 0,336.305 H 303.064 V 0 H 0 Z"/></clipPath></defs><g id="g10" transform="matrix(1.3333333,0,0,-1.3333333,0,448.40667)"><g id="g12"><g id="g14" clip-path="url(#clipPath18)"><g id="g20" transform="translate(216.4556,21.0229)"><path id="path22" d="m 0,0 h -147.251 c -25.182,0 -46.881,19.311 -48.123,44.461 -1.328,26.885 20.162,49.182 46.765,49.182 h 84.804 c 5.189,0 9.395,4.206 9.395,9.394 v 69.229 L 29.025,126.032 C 51.087,113.807 64.975,90.781 65.565,65.646 66.415,29.551 36.104,0 0,0 m -158.872,168.227 c -22.062,12.225 -35.95,35.251 -36.541,60.386 -0.849,36.095 29.462,65.646 65.565,65.646 H 17.403 c 25.182,0 46.881,-19.311 48.124,-44.462 1.328,-26.884 -20.162,-49.181 -46.764,-49.181 0,0 -60.987,-0.01 -84.808,-0.014 -5.186,-0.001 -9.374,-4.206 -9.376,-9.392 l -0.016,-69.217 z M 39.213,144.42 -24.265,179.593 h 43.028 c 37.408,0 67.845,30.434 67.845,67.843 0,37.408 -30.437,67.846 -67.845,67.846 h -150.224 c -46.864,0 -84.995,-38.131 -84.995,-84.995 0,-33.425 18.162,-64.248 47.396,-80.449 l 63.477,-35.172 h -43.026 c -37.41,0 -67.847,-30.435 -67.847,-67.843 0,-37.408 30.437,-67.846 67.847,-67.846 H 1.613 c 46.866,0 84.995,38.13 84.995,84.995 0,33.425 -18.162,64.248 -47.395,80.448" style="fill:#fff;fill-opacity:1;fill-rule:nonzero;stroke:none"/></g></g></g></g></svg>