<svg xmlns="http://www.w3.org/2000/svg" xmlns:xlink="http://www.w3.org/1999/xlink" width="16" height="16" version="1.1" viewBox="0 0 16 16"><title>Link/broken-link-16</title><desc>Created with Sketch.</desc><g id="Link/broken-link-16" fill="none" fill-rule="evenodd" stroke="none" stroke-width="1"><path id="Combined-Shape" fill="#000" fill-rule="nonzero" d="M9.49509379,9.33333333 L12.6666667,9.33333333 C13.4030463,9.33333333 14,8.73637967 14,8 C14,7.26362033 13.4030463,6.66666667 12.6666667,6.66666667 L12.1617605,6.66666667 L13.3945435,5.43388365 C14.5135095,5.75065459 15.3333333,6.77958724 15.3333333,8 C15.3333333,9.47275933 14.139426,10.6666667 12.6666667,10.6666667 L8.66666667,10.6666667 C8.5081988,10.6666667 8.35295937,10.6528441 8.20208831,10.6263388 L9.49509379,9.33333333 Z"/><path id="Combined-Shape" fill="#000" fill-rule="nonzero" d="M6.50490621,6.66666667 L3.33333333,6.66666667 C2.59695367,6.66666667 2,7.26362033 2,8 C2,8.73637967 2.59695367,9.33333333 3.33333333,9.33333333 L3.83823954,9.33333333 L2.60545653,10.5661163 C1.48649049,10.2493454 0.666666667,9.22041276 0.666666667,8 C0.666666667,6.52724067 1.860574,5.33333333 3.33333333,5.33333333 L7.33333333,5.33333333 C7.4918012,5.33333333 7.64704063,5.34715592 7.79791169,5.37366118 L6.50490621,6.66666667 Z"/><rect id="Rectangle-8" width="1.333" height="13.333" x="7.333" y="1.333" fill="#000" fill-rule="nonzero" transform="translate(8.000000, 8.000000) rotate(45.000000) translate(-8.000000, -8.000000)"/></g></svg>